#!OML:ASF F:\VICON\USERDATA\Patient Classification 1\PLAYGROUND\JustinFriday\JustinFriday.ASF
:FULLY-SPECIFIED
:DEGREES
1693
root 5.81645 17.7115 -17.1828 -528.72 -118.55 164.327
lowerback 20.5681 4.16959 1.50108
upperback -0.956467 6.81476 7.93356
thorax -13.5822 3.36238 5.98832
lowerneck -3.05925 4.28313 -3.39656
upperneck 4.17025 6.08508 -5.00516
head 1.88319 2.84744 -0.84405
rclavicle -7.56376e-014 -7.63333e-014
rhumerus -17.4863 13.7501 -74.7174
rradius 82.4346
rwrist 366.425
rhand -1.79825 -16.1205
rfingers 7.12502
rthumb 23.8669 -44.6576
lclavicle -7.56376e-014 -7.63333e-014
lhumerus -1.01777 11.3162 59.398
lradius 72.6173
lwrist -20.252
lhand -32.7508 -9.81989
lfingers 7.12502
lthumb -5.97358 20.0759
rfemur -5.99741 -2.25062 23.3391
rtibia 26.5435
rfoot -13.0413 -7.2018
rtoes -3.61672
lfemur -23.5964 -1.37772 -2.71642
ltibia 60.8563
lfoot -9.47436 -20.6904
ltoes -13.3978
1694
root 5.73412 17.6834 -17.1863 -530.149 -119.378 165.666
lowerback 20.8239 4.33812 1.07688
upperback -1.08583 6.96519 7.85061
thorax -13.9426 3.46593 6.0778
lowerneck -3.50288 4.10498 -3.11139
upperneck 4.80184 5.90676 -5.25518
head 2.18738 2.72892 -0.960656
rclavicle -5.96354e-016 -3.33958e-014
rhumerus -16.4959 14.3267 -74.647
rradius 82.5628
rwrist 367.171
rhand -13.3859 -17.7421
rfingers 7.12502
rthumb 12.7212 -47.3346
lclavicle -5.96354e-016 -3.33958e-014
lhumerus 0.915655 10.9318 59.2787
lradius 71.3916
lwrist -19.9618
lhand -32.3743 -9.02505
lfingers 7.12502
lthumb -5.61012 20.8807
rfemur -5.42145 -2.92095 22.9038
rtibia 26.6214
rfoot -13.4213 -7.4808
rtoes -2.8676
lfemur -24.0827 0.307939 -3.13331
ltibia 59.8125
lfoot -9.32623 -21.8779
ltoes -10.9529
1695
root 5.65077 17.6751 -17.1913 -530.544 -120.323 165.987
lowerback 20.9564 4.37648 1.02198
upperback -1.21726 7.04265 7.96597
thorax -14.2122 3.51651 6.21633
lowerneck -3.62437 3.64825 -3.55131
upperneck 4.99574 5.31488 -4.83975
head 2.23794 2.42973 -0.769201
rclavicle 1.62705e-013 4.77083e-014
rhumerus -15.2314 15.217 -74.5325
rradius 82.256
rwrist 368.372
rhand -12.8915 -14.3136
rfingers 7.12502
rthumb 13.1978 -43.8758
lclavicle 1.62705e-013 4.77083e-014
lhumerus 2.97388 11.233 59.4631
lradius 70.1555
lwrist -20.0203
lhand -31.8051 -8.48618
lfingers 7.12502
lthumb -5.06056 21.4334
rfemur -4.93003 -3.49524 23.0568
rtibia 26.5687
rfoot -13.6558 -7.96487
rtoes -2.87603
lfemur -24.58 0.748367 -3.2314
ltibia 58.6341
lfoot -9.63643 -21.5579
ltoes -11.0786
1696
root 5.56861 17.6698 -17.1888 -530.263 -121.294 165.357
lowerback 21.1999 4.26222 1.42261
upperback -1.23382 7.04019 8.27036
thorax -14.3732 3.49751 6.33776
lowerneck -3.13414 3.76952 -4.84205
upperneck 3.79845 5.38908 -3.54942
head 1.67945 2.52689 -0.171884
rclavicle -2.73329e-015 4.77083e-014
rhumerus -13.7934 16.5705 -74.3059
rradius 82.3957
rwrist 368.234
rhand -12.621 -13.1963
rfingers 7.12502
rthumb 13.4585 -42.7415
lclavicle -2.73329e-015 4.77083e-014
lhumerus 4.84218 11.8309 59.5894
lradius 68.8601
lwrist -19.9786
lhand -31.6488 -8.2551
lfingers 7.12502
lthumb -4.90959 21.668
rfemur -4.30767 -3.85864 23.7389
rtibia 26.5896
rfoot -13.9658 -8.6292
rtoes -3.38553
lfemur -24.9297 1.35217 -2.82606
ltibia 57.485
lfoot -10.6487 -21.0461
ltoes -13.2372
1697
root 5.48749 17.6585 -17.1837 -530.243 -122.181 164.921
lowerback 21.5614 4.38982 1.94513
upperback -1.26714 7.37294 8.28607
thorax -14.5982 3.60397 5.92528
lowerneck -3.4669 3.50487 -4.42336
upperneck 3.89721 5.04768 -3.61153
head 1.7849 2.35537 -0.258966
rclavicle -3.86636e-014 6.20208e-014
rhumerus -12.5957 17.0434 -74.1217
rradius 83.5451
rwrist 366.034
rhand -10.5847 -16.1696
rfingers 7.12502
rthumb 15.4205 -45.5744
lclavicle -3.86636e-014 6.20208e-014
lhumerus 6.94908 10.8999 59.1769
lradius 67.2815
lwrist -19.0965
lhand -31.8317 -8.00805
lfingers 7.12502
lthumb -5.0862 21.9109
rfemur -3.52052 -3.96777 24.3122
rtibia 26.4423
rfoot -14.2694 -9.32709
rtoes -2.88494
lfemur -25.103 2.03129 -2.55815
ltibia 56.261
lfoot -12.0465 -20.2294
ltoes -16.5148
1698
root 5.41093 17.6434 -17.1861 -530.407 -123.171 165.049
lowerback 21.7662 4.73448 2.39667
upperback -1.38341 7.93674 7.91808
thorax -14.7881 3.80088 5.02481
lowerneck -4.7565 3.07337 -2.64105
upperneck 4.73917 4.52683 -4.50412
head 2.36636 2.06126 -0.823276
rclavicle -1.44616e-014 8.26944e-014
rhumerus -11.4078 16.6834 -74.1101
rradius 83.3433
rwrist 367.418
rhand -11.4951 -16.7298
rfingers 7.12502
rthumb 14.5436 -46.2
lclavicle -1.44616e-014 8.26944e-014
lhumerus 9.99236 9.28547 58.8545
lradius 65.5068
lwrist -18.3712
lhand -31.6164 -7.79592
lfingers 7.12502
lthumb -4.87836 22.1279
rfemur -3.14353 -4.18291 24.643
rtibia 26.3519
rfoot -14.6145 -9.95605
rtoes -1.65145
lfemur -25.6374 2.65158 -2.6308
ltibia 54.9665
lfoot -13.0809 -19.0989
ltoes -19.4495
1699
root 5.33471 17.6277 -17.1878 -530.197 -124.196 164.891
lowerback 21.7826 4.63502 2.49696
upperback -1.56909 7.88687 8.1587
thorax -15.0479 3.78592 5.27124
lowerneck -5.40393 3.26637 -2.87166
upperneck 5.85301 4.89821 -4.64634
head 2.86382 2.19363 -0.800258
rclavicle -9.25343e-014 9.06458e-014
rhumerus -10.2549 18.122 -73.8361
rradius 83.1562
rwrist 368.427
rhand -12.6003 -16.5784
rfingers 7.12502
rthumb 13.4784 -46.1223
lclavicle -9.25343e-014 9.06458e-014
lhumerus 11.5862 9.5557 58.9092
lradius 63.9844
lwrist -18.5184
lhand -31.3006 -7.76467
lfingers 7.12502
lthumb -4.57338 22.166
rfemur -3.00572 -4.55639 25.1959
rtibia 26.3609
rfoot -14.7322 -10.8327
rtoes -2.1809
lfemur -26.3882 3.38374 -2.55925
ltibia 53.6337
lfoot -13.29 -18.3019
ltoes -20.2495
1700
root 5.2523 17.6095 -17.1874 -530.36 -125.033 165.044
lowerback 21.8381 4.61288 2.29676
upperback -1.66845 7.85647 8.39146
thorax -15.271 3.80631 5.67228
lowerneck -4.85344 3.22051 -4.35629
upperneck 5.63509 4.83125 -3.51124
head 2.61146 2.18114 -0.198654
rclavicle 2.83268e-014 3.33958e-014
rhumerus -9.75485 19.5861 -73.5932
rradius 83.6009
rwrist 368.162
rhand -14.5623 -17.1771
rfingers 7.12502
rthumb 11.5869 -46.8368
lclavicle 2.83268e-014 3.33958e-014
lhumerus 13.2808 9.96495 59.1392
lradius 62.192
lwrist -18.7349
lhand -31.0814 -7.92063
lfingers 7.12502
lthumb -4.36178 22.0145
rfemur -2.71447 -4.624 25.5511
rtibia 26.3829
rfoot -14.7674 -12.031
rtoes -3.50627
lfemur -26.9363 4.30362 -2.75154
ltibia 52.2618
lfoot -13.1966 -17.9499
ltoes -19.7793
1701
root 5.17173 17.5908 -17.1834 -530.359 -126.042 164.972
lowerback 21.9101 4.62252 2.48295
upperback -1.76376 7.94878 8.47253
thorax -15.4284 3.8376 5.62752
lowerneck -5.76306 2.78283 -3.32804
upperneck 6.56476 4.35194 -4.7747
head 3.16264 1.8776 -0.779458
rclavicle -1.59227e-013 -6.04305e-014
rhumerus -7.59497 20.5797 -72.9794
rradius 83.5229
rwrist 368.03
rhand -13.9786 -17.9056
rfingers 7.12502
rthumb 12.1497 -47.5327
lclavicle -1.59227e-013 -6.04305e-014
lhumerus 15.4918 9.83537 59.2961
lradius 60.3462
lwrist -18.2625
lhand -30.2056 -8.04766
lfingers 7.12502
lthumb -3.51599 21.9031
rfemur -2.37607 -4.98331 25.9976
rtibia 26.3595
rfoot -14.9738 -12.8006
rtoes -3.60569
lfemur -27.4866 5.11805 -2.84983
ltibia 50.9082
lfoot -13.4328 -17.2379
ltoes -20.3141
1702
root 5.09482 17.5728 -17.175 -530.001 -127.11 164.49
lowerback 21.9516 4.55289 2.95799
upperback -1.88281 8.01917 8.62737
thorax -15.5666 3.83651 5.51582
lowerneck -4.62826 2.32616 -3.8958
upperneck 4.82612 3.58134 -4.02918
head 2.32474 1.58011 -0.493436
rclavicle -5.40694e-014 -9.54166e-015
rhumerus -4.72041 22.3383 -71.9778
rradius 83.3871
rwrist 367.084
rhand -13.3799 -18.9845
rfingers 7.12502
rthumb 12.727 -48.5767
lclavicle -5.40694e-014 -9.54166e-015
lhumerus 17.4024 9.34335 59.0395
lradius 59.0631
lwrist -17.0808
lhand -29.2221 -7.66085
lfingers 7.12502
lthumb -2.56618 22.3035
rfemur -2.06221 -5.50651 26.6964
rtibia 26.2641
rfoot -14.9988 -13.3898
rtoes -3.84936
lfemur -28.0555 5.86155 -2.71263
ltibia 49.5914
lfoot -13.5669 -16.1855
ltoes -20.584
1703
root 5.01884 17.5589 -17.1769 -529.376 -127.933 163.862
lowerback 22.0095 4.57561 3.18554
upperback -2.00488 8.16591 8.87322
thorax -15.7809 3.89798 5.62681
lowerneck -2.66529 2.10324 -4.43651
upperneck 1.85491 3.02933 -3.36269
head 0.995718 1.42508 -0.251079
rclavicle 4.06018e-014 -5.40694e-014
rhumerus -2.87247 22.7129 -71.8831
rradius 83.0872
rwrist 368.188
rhand -13.2361 -18.1357
rfingers 7.12502
rthumb 12.8656 -47.7191
lclavicle 4.06018e-014 -5.40694e-014
lhumerus 18.7205 9.54104 59.3897
lradius 57.4594
lwrist -17.3149
lhand -29.7058 -8.13739
lfingers 7.12502
lthumb -3.03337 21.8208
rfemur -1.90954 -5.14464 27.6473
rtibia 26.0969
rfoot -15.1042 -14.2593
rtoes -2.70358
lfemur -28.7361 6.82972 -2.49039
ltibia 48.1964
lfoot -13.0142 -15.4606
ltoes -18.5556
1704
root 4.94477 17.5489 -17.1733 -528.472 -128.82 162.735
lowerback 22.174 4.76779 4.16065
upperback -2.16874 8.73756 9.00449
thorax -16.0131 4.0669 5.01598
lowerneck -5.11827 2.29618 -4.56805
upperneck 5.60309 3.62883 -3.53488
head 2.65201 1.57634 -0.209577
rclavicle 1.39348e-013 6.04305e-014
rhumerus -1.42716 22.7499 -70.8881
rradius 84.3381
rwrist 369.764
rhand -9.23032 -20.0857
rfingers 7.12502
rthumb 16.7247 -49.3853
lclavicle 1.39348e-013 6.04305e-014
lhumerus 20.7566 8.68446 59.7643
lradius 55.7368
lwrist -17.5221
lhand -30.5428 -8.70705
lfingers 7.12502
lthumb -3.84167 21.2381
rfemur -1.69235 -5.10487 28.8847
rtibia 25.9914
rfoot -15.3925 -14.8024
rtoes -1.1016
lfemur -29.3283 7.81613 -1.9725
ltibia 46.7069
lfoot -12.5757 -14.6451
ltoes -17.5724
1705
root 4.86447 17.5494 -17.1546 -528.801 -129.749 162.892
lowerback 22.3184 5.22579 5.0239
upperback -2.49029 9.6001 8.64798
thorax -16.3417 4.3388 3.78897
lowerneck -4.27852 1.48016 -4.59221
upperneck 5.07627 2.43755 -3.10294
head 2.31955 1.0237 -0.121633
rclavicle 1.80447e-013 6.99722e-014
rhumerus -1.09645 20.9065 -70.5621
rradius 85.1401
rwrist 372.28
rhand -5.87119 -20.5695
rfingers 7.12502
rthumb 19.9562 -49.5648
lclavicle 1.80447e-013 6.99722e-014
lhumerus 23.234 6.52654 60.4688
lradius 53.9915
lwrist -17.5223
lhand -30.5423 -8.89408
lfingers 7.12502
lthumb -3.84111 21.0511
rfemur -1.22164 -5.92528 29.0739
rtibia 25.975
rfoot -15.8157 -14.8846
rtoes -0.280623
lfemur -29.5107 8.52584 -2.43837
ltibia 45.0587
lfoot -12.5792 -13.3623
ltoes -18.6697
